<svg xmlns="http://www.w3.org/2000/svg" x="0px" y="0px" width="45" height="45" viewBox="0 0 50 50">
    <path d="M 25.597656 2.015625 C 24.665508 1.9797388 23.704955 2.1925248 22.800781 2.7070312 L 9.7226562 10.150391 C 8.0416735 11.107447 7 12.896967 7 14.832031 L 7 33.044922 C 7 35.250286 9.4599345 36.695293 11.386719 35.623047 L 16.460938 32.796875 L 16.460938 32.798828 C 17.41063 32.270674 18 31.264616 18 30.177734 L 18 18.074219 C 18 17.011922 18.662332 16.074411 19.664062 15.71875 L 28.939453 12.429688 L 28.939453 36 L 15.804688 36 C 14.373128 36 13.011947 36.927039 12.609375 38.398438 C 12.194139 39.914952 12.847367 41.479624 14.126953 42.222656 L 21.697266 47.074219 A 1.0001 1.0001 0 0 0 21.755859 47.109375 C 23.197445 47.902576 24.744071 48.015303 26.152344 47.636719 A 1.0001 1.0001 0 0 0 26.449219 47.59375 L 38.785156 44.136719 C 41.253674 43.483288 43 41.257078 43 38.710938 L 43 11.109375 C 43 8.5884893 41.290547 6.3745027 38.847656 5.6972656 L 38.859375 5.6992188 L 27.099609 2.2695312 A 1.0001 1.0001 0 0 0 26.833984 2.2285156 C 26.43141 2.115132 26.019708 2.0318733 25.597656 2.015625 z M 25.585938 3.9824219 C 25.827067 3.9885463 26.062827 4.0249802 26.292969 4.0820312 A 1.0001 1.0001 0 0 0 26.539062 4.1894531 L 26.892578 4.2929688 C 28.066926 4.8368027 28.935547 6.0560468 28.935547 7.6269531 L 28.935547 10.308594 L 18.996094 13.833984 C 17.203827 14.470323 16 16.172516 16 18.074219 L 16 30.177734 C 16 30.542853 15.804588 30.874889 15.488281 31.050781 L 10.414062 33.876953 C 9.738847 34.252707 9 33.817557 9 33.044922 L 9 14.832031 C 9 13.613095 9.6519199 12.491616 10.710938 11.888672 L 23.789062 4.4453125 C 24.376889 4.110819 24.993336 3.9673706 25.585938 3.9824219 z M 30.443359 5.328125 L 38.300781 7.6191406 A 1.0001 1.0001 0 0 0 38.3125 7.6230469 C 39.909608 8.0658061 41 9.4902607 41 11.109375 L 41 38.710938 C 41 40.344797 39.88492 41.776556 38.273438 42.203125 A 1.0001 1.0001 0 0 0 38.259766 42.207031 L 30.126953 44.486328 C 30.605793 43.609278 30.892443 42.598958 30.923828 41.501953 A 1.0001 1.0001 0 0 0 30.939453 41.310547 L 30.939453 7.6308594 A 1.0001 1.0001 0 0 0 30.927734 7.4765625 C 30.907567 6.702179 30.735629 5.9790326 30.443359 5.328125 z M 15.804688 38 L 28.935547 38 L 28.935547 41.306641 C 28.935547 43.380613 27.755759 44.962086 26.201172 45.585938 L 25.910156 45.667969 A 1.0001 1.0001 0 0 0 25.697266 45.75 C 24.754314 45.990351 23.715635 45.897838 22.730469 45.359375 L 15.169922 40.515625 A 1.0001 1.0001 0 0 0 15.132812 40.494141 C 14.6524 40.215169 14.354345 39.59522 14.537109 38.927734 A 1.0001 1.0001 0 0 0 14.537109 38.925781 C 14.689505 38.366861 15.233159 38 15.804688 38 z" fill="#6c757d"></path>
</svg>